<svg width="622" height="314" viewBox="0 0 622 314" fill="none" xmlns="http://www.w3.org/2000/svg">
<g clip-path="url(#clip0_1_2)">
<path d="M424.2 291.5C425.1 290.7 426 290.1 427 289.7C428.7 289 430.5 288.7 432.4 289C434.3 289.2 436.2 289.9 437.9 291.1C439.4 292.1 440.6 293.3 441.5 294.5C442.4 295.8 443 297.1 443.3 298.5C443.6 299.9 443.6 301.3 443.3 302.8C443 304.3 442.3 305.8 441.3 307.2L438.6 311.2C437.8 312.4 437.1 313 436.4 313.2C435.7 313.3 434.9 313 433.8 312.3L420.4 303.2C419.3 302.5 418.7 301.8 418.5 301C418.3 300.3 418.6 299.3 419.4 298.1L421.8 294.6C422.5 293.3 423.4 292.3 424.2 291.5ZM434.6 295.8C431.1 293.4 428.1 294 425.7 297.5L424.4 299.4L435.5 307L436.9 305C439.2 301.5 438.4 298.4 434.6 295.8Z" fill="url(#paint0_linear_1_2)"/>
<path d="M457.8 283.4C456.8 284.9 455.3 284.9 453.2 283.5L439.9 274.4C438.8 273.7 438.2 273 438 272.2C437.8 271.5 438.1 270.5 438.9 269.3L441.2 265.9C442.8 263.5 444.6 262.1 446.6 261.6C448.6 261.1 450.4 261.5 452.2 262.7C453.6 263.6 454.5 264.8 454.9 266.3C455.3 267.7 455.1 269.2 454.3 270.9L460.5 270.1C462.1 269.9 463.2 270.1 463.9 270.5C464.5 270.9 464.8 271.4 465 272.1C465.1 272.8 465 273.4 464.6 274C464.3 274.4 463.9 274.7 463.4 274.9C462.9 275.1 462.3 275.2 461.5 275.3L451.6 276L456.4 279.2C458.2 280.5 458.8 282 457.8 283.4ZM450.7 269.4C450.6 268.6 450.2 268 449.4 267.5C448.7 267 448 266.9 447.2 267.1C446.5 267.3 445.8 267.8 445.2 268.7L443.8 270.8L448.5 274L449.9 272C450.5 271 450.8 270.1 450.7 269.4Z" fill="url(#paint1_linear_1_2)"/>
<path d="M463.9 237.4L481.1 242C481.5 242.1 481.8 242.2 482 242.3C482.3 242.4 482.5 242.5 482.7 242.6C483.3 243 483.6 243.6 483.7 244.2C483.8 244.9 483.6 245.5 483.2 246.1C482.4 247.2 481.2 247.5 479.5 247L476.8 246.2L472.2 253L474.1 255.4C475.1 256.7 475.3 257.8 474.6 258.8C474.2 259.4 473.7 259.8 473 259.9C472.4 260 471.7 259.9 471.1 259.5C470.6 259.2 470.3 258.8 470 258.4L459.8 244.1C458.4 242.1 458.2 240.4 459.2 238.8C460.2 237.3 461.8 236.8 463.9 237.4ZM472.1 244.7L463.9 242.2V242.3L469.2 249.1L472.1 244.7Z" fill="url(#paint2_linear_1_2)"/>
<path d="M496.2 227C495.6 227.9 494.9 228.4 494.2 228.5C493.4 228.6 492.5 228.5 491.3 228L475.7 221.9C475.4 221.8 475.2 221.7 475 221.6C474.8 221.5 474.6 221.3 474.3 221.2C473.7 220.8 473.3 220.2 473.2 219.6C473.1 218.9 473.3 218.3 473.7 217.6C474.5 216.4 475.6 216.2 477.1 216.8L490.9 222.8L480.7 211.2C479.7 210 479.6 208.8 480.5 207.5C481.4 206.2 482.6 205.9 484.1 206.4L498.5 211.6L488 201.2C487.3 200.5 486.9 199.9 486.8 199.3C486.7 198.7 486.8 198.1 487.3 197.4C487.7 196.7 488.3 196.4 489 196.2C489.7 196 490.3 196.2 490.8 196.6C491 196.7 491.2 196.9 491.4 197C491.6 197.2 491.8 197.4 492 197.6L503.3 210.1C504.1 211 504.6 211.9 504.8 212.6C505 213.3 504.8 214.2 504.1 215.2C503.1 216.7 501.6 217.1 499.7 216.4L486.7 211.8L495.6 221.8C497.1 223.7 497.3 225.3 496.2 227Z" fill="url(#paint3_linear_1_2)"/>
<path d="M530.8 176.1C529.8 177.6 528.3 177.6 526.2 176.2L512.7 167C510.6 165.6 510.1 164.1 511.1 162.7C512.1 161.2 513.6 161.2 515.7 162.6L529.2 171.8C531.3 173.2 531.8 174.6 530.8 176.1Z" fill="url(#paint4_linear_1_2)"/>
<path d="M522.6 150.6C521.2 149.7 521.3 148.2 522.7 146.1L527.9 138.5C529.3 136.4 530.7 135.8 532.1 136.8C533.5 137.7 533.4 139.2 532 141.3L530.9 142.9L543.2 151.3C545.3 152.7 545.8 154.1 544.8 155.6C543.8 157.1 542.3 157.1 540.2 155.7L527.9 147.3L526.8 148.9C525.4 150.9 524 151.5 522.6 150.6Z" fill="url(#paint5_linear_1_2)"/>
<path d="M570.5 117.7C569.5 119.2 568 119.2 565.9 117.8L552.2 108.5C551.2 107.9 550.6 107.2 550.3 106.5C550 105.8 550.1 105.1 550.6 104.4C550.9 103.9 551.4 103.6 551.8 103.4C552.3 103.2 552.9 103.1 553.6 103.1L569.8 102.3L560.8 96.2C558.7 94.8 558.2 93.3 559.2 91.9C560.2 90.4 561.7 90.4 563.8 91.8L577.8 101.3C578.7 101.9 579.3 102.5 579.5 103.1C579.8 103.7 579.6 104.4 579.2 105.1C578.6 106 577.5 106.4 575.9 106.5L560 107.3L568.9 113.3C571 114.8 571.5 116.2 570.5 117.7Z" fill="url(#paint6_linear_1_2)"/>
<path d="M574.8 81.5C573.9 80.2 573.3 78.9 573 77.5C572.7 76.1 572.7 74.7 573 73.2C573.3 71.8 573.9 70.3 574.8 69C575.7 67.6 576.8 66.5 578.1 65.7C579.3 64.9 580.7 64.4 582.1 64.1C583.5 63.9 585 64 586.5 64.3C588 64.7 589.5 65.4 591 66.4C592.5 67.4 593.7 68.6 594.6 69.8C595.5 71.1 596.1 72.4 596.4 73.8C596.7 75.2 596.7 76.6 596.4 78.1C596.1 79.6 595.5 81 594.5 82.4C593.6 83.8 592.5 84.9 591.2 85.7C590 86.5 588.6 87 587.2 87.2C585.8 87.4 584.3 87.3 582.8 87C581.3 86.6 579.8 85.9 578.3 84.9C576.9 83.9 575.7 82.8 574.8 81.5ZM586.7 81.9C588.3 81.7 589.6 81 590.5 79.6C591.4 78.3 591.7 76.8 591.2 75.2C590.8 73.6 589.7 72.3 587.9 71.1C586.1 69.8 584.3 69.3 582.7 69.4C581.1 69.5 579.8 70.3 578.9 71.6C578 72.9 577.8 74.4 578.2 76C578.7 77.6 579.8 79 581.7 80.2C583.4 81.5 585.1 82.1 586.7 81.9Z" fill="url(#paint7_linear_1_2)"/>
<path d="M612.4 56.1C611.8 57 611.1 57.5 610.4 57.6C609.6 57.7 608.7 57.6 607.5 57.1L591.9 51C591.6 50.9 591.4 50.8 591.2 50.7C591 50.6 590.8 50.4 590.5 50.3C589.9 49.9 589.5 49.3 589.4 48.7C589.3 48 589.5 47.4 589.9 46.7C590.7 45.5 591.8 45.3 593.3 45.9L607.1 51.9L597 40.3C596 39.1 595.9 37.9 596.8 36.6C597.7 35.3 598.9 34.9 600.4 35.5L614.8 40.7L604.4 30.2C603.7 29.5 603.3 28.9 603.2 28.3C603.1 27.7 603.2 27.1 603.7 26.4C604.1 25.7 604.7 25.4 605.4 25.2C606.1 25.1 606.7 25.2 607.2 25.6C607.4 25.7 607.6 25.9 607.8 26C608 26.2 608.2 26.4 608.4 26.6L619.7 39.1C620.5 40 621 40.9 621.2 41.6C621.4 42.3 621.2 43.2 620.5 44.2C619.5 45.7 618 46.1 616.1 45.4L603.1 40.8L612 50.8C613.4 52.7 613.6 54.4 612.4 56.1Z" fill="url(#paint8_linear_1_2)"/>
<path d="M187.1 55.2C202.343 55.2 214.7 42.8431 214.7 27.6C214.7 12.3569 202.343 0 187.1 0C171.857 0 159.5 12.3569 159.5 27.6C159.5 42.8431 171.857 55.2 187.1 55.2Z" fill="url(#paint9_linear_1_2)"/>
<path d="M122.3 114L26.4 258.8C26.4 258.8 16.5 276 27.8 286.8C39.8 298.2 60.1 281.7 60.1 281.7L275.9 94.1C275.9 94.1 283.7 87.5 294.3 91.5C303.5 95 305.3 103 305.3 103L336.5 279.8C336.5 279.8 338.3 289.9 346.8 291.4C357.3 293.3 364.1 285.5 364.1 285.5L517.8 62.4C517.8 62.4 526.9 45.3 511.8 34.2C496.7 23.1 480.4 37.9 480.4 37.9L253 235C253 235 245.8 240.8 240.3 238.8C233.3 236.3 232.3 230.2 232.3 230.2L214.2 125.8C214.2 125.8 209.1 91.7 177.5 86C142.2 79.7 122.3 114 122.3 114Z" stroke="url(#paint10_linear_1_2)" stroke-width="43.5437" stroke-miterlimit="10"/>
</g>
<defs>
<linearGradient id="paint0_linear_1_2" x1="423.924" y1="291.794" x2="441.055" y2="308.925" gradientUnits="userSpaceOnUse">
<stop stop-color="#959594"/>
<stop offset="0.5556" stop-color="#636362"/>
</linearGradient>
<linearGradient id="paint1_linear_1_2" x1="443.043" y1="263.656" x2="460.339" y2="280.951" gradientUnits="userSpaceOnUse">
<stop stop-color="#959594"/>
<stop offset="0.5556" stop-color="#636362"/>
</linearGradient>
<linearGradient id="paint2_linear_1_2" x1="461.871" y1="236.082" x2="479.608" y2="253.819" gradientUnits="userSpaceOnUse">
<stop stop-color="#959594"/>
<stop offset="0.5556" stop-color="#636362"/>
</linearGradient>
<linearGradient id="paint3_linear_1_2" x1="479.164" y1="205.583" x2="498.441" y2="224.86" gradientUnits="userSpaceOnUse">
<stop stop-color="#959594"/>
<stop offset="0.5556" stop-color="#636362"/>
</linearGradient>
<linearGradient id="paint4_linear_1_2" x1="512.606" y1="160.989" x2="529.288" y2="177.67" gradientUnits="userSpaceOnUse">
<stop stop-color="#959594"/>
<stop offset="0.5556" stop-color="#636362"/>
</linearGradient>
<linearGradient id="paint5_linear_1_2" x1="524.906" y1="141.198" x2="542.049" y2="158.341" gradientUnits="userSpaceOnUse">
<stop stop-color="#959594"/>
<stop offset="0.5556" stop-color="#636362"/>
</linearGradient>
<linearGradient id="paint6_linear_1_2" x1="555.57" y1="95.3796" x2="574.244" y2="114.054" gradientUnits="userSpaceOnUse">
<stop stop-color="#959594"/>
<stop offset="0.5556" stop-color="#636362"/>
</linearGradient>
<linearGradient id="paint7_linear_1_2" x1="576.186" y1="67.2142" x2="593.124" y2="84.1516" gradientUnits="userSpaceOnUse">
<stop stop-color="#959594"/>
<stop offset="0.5556" stop-color="#636362"/>
</linearGradient>
<linearGradient id="paint8_linear_1_2" x1="595.452" y1="34.632" x2="614.729" y2="53.9088" gradientUnits="userSpaceOnUse">
<stop stop-color="#959594"/>
<stop offset="0.5556" stop-color="#636362"/>
</linearGradient>
<linearGradient id="paint9_linear_1_2" x1="163.188" y1="41.4182" x2="210.932" y2="13.8531" gradientUnits="userSpaceOnUse">
<stop offset="7.85379e-08" stop-color="#FCE5D8"/>
<stop offset="1" stop-color="#F9EDAA"/>
</linearGradient>
<linearGradient id="paint10_linear_1_2" x1="0.574081" y1="160.932" x2="542.141" y2="160.932" gradientUnits="userSpaceOnUse">
<stop offset="7.85379e-08" stop-color="#FCE5D8"/>
<stop offset="0.4739" stop-color="#F9EDAA"/>
<stop offset="0.5487" stop-color="#F2EBAA"/>
<stop offset="0.8258" stop-color="#DAE4A9"/>
<stop offset="1" stop-color="#D2E2A9"/>
</linearGradient>
<clipPath id="clip0_1_2">
<rect width="622" height="314" fill="white"/>
</clipPath>
</defs>
</svg>
