<svg width="22" height="38" viewBox="0 0 22 38" fill="none" xmlns="http://www.w3.org/2000/svg">
<path fill-rule="evenodd" clip-rule="evenodd" d="M11 37C16.5228 37 21 32.5228 21 27L21 11C21 5.47715 16.5228 0.999999 11 0.999999V0.999999C5.47715 0.999998 1 5.47715 1 11L0.999999 27C0.999999 32.5228 5.47715 37 11 37V37Z" stroke="#333D3F" stroke-width="2"/>
<g filter="url(#filter0_d_93_1696)">
<path d="M11 23C8.79086 23 7 24.7909 7 27C7 29.2091 8.79086 31 11 31C13.2091 31 15 29.2091 15 27C15 24.7909 13.2091 23 11 23Z" stroke="#333D3F" stroke-width="2"/>
</g>
<defs>
<filter id="filter0_d_93_1696" x="4" y="22" width="14" height="14" filterUnits="userSpaceOnUse" color-interpolation-filters="sRGB">
<feFlood flood-opacity="0" result="BackgroundImageFix"/>
<feColorMatrix in="SourceAlpha" type="matrix" values="0 0 0 0 0 0 0 0 0 0 0 0 0 0 0 0 0 0 127 0" result="hardAlpha"/>
<feOffset dy="2"/>
<feGaussianBlur stdDeviation="1"/>
<feColorMatrix type="matrix" values="0 0 0 0 0 0 0 0 0 0 0 0 0 0 0 0 0 0 0.08 0"/>
<feBlend mode="normal" in2="BackgroundImageFix" result="effect1_dropShadow_93_1696"/>
<feBlend mode="normal" in="SourceGraphic" in2="effect1_dropShadow_93_1696" result="shape"/>
</filter>
</defs>
</svg>
